P2
#
86 94
200
167 158 175 190 33 170 10 117 18 188 65 124 176 75 182 105 8 46 33 85 83 68 75 119 183 4 164 107 143 148 111 22 115 54 171 187 82 50 39 28 83 183 171 69 42 136 3 75 156 96 169 65 121 163 152 58 24 137 123 73 40 146 147 69 78 17 8 109 66 42 149 180 45 35 74 6 169 150 167 16 184 158 17 197 195 191 19 137 157 145 124 147 174 19 106 74 179 9 180 15 188 10 188 39 145 67 119 68 189 37 125 169 111 116 157 148 193 23 176 178 177 35 120 105 184 136 14 134 68 162 66 121 190 82 154 94 181 168 40 43 163 158 11 77 58 77 8 98 133 42 40 6 187 150 189 65 174 162 157 165 53 192 38 194 104 191 69 160 191 66 32 131 190 91 194 56 106 148 62 35 63 13 24 177 200 172 66 18 78 85 3 9 166 142 33 180 174 128 133 62 91 156 5 145 99 163 1 60 11 168 160 40 37 100 91 57 159 155 11 151 129 55 35 114 68 115 138 75 174 167 50 59 121 36 174 61 188 60 56 118 191 16 133 171 172 27 100 33 165 115 31 154 168 118 88 161 110 108 186 69 124 86 136 197 155 174 4 166 194 80 105 178 43 119 189 40 44 33 174 33 28 196 88 107 49 35 147 56 97 76 35 96 200 129 122 6 55 161 155 49 199 77 194 189 44 156 112 138 77 142 10 84 78 62 48 123 45 173 97 82 151 60 183 91 117 53 107 56 183 113 144 158 78 197 86 51 156 164 46 6 24 180 52 168 147 47 23 56 195 86 69 10 74 79 51 133 30 52 111 15 36 181 52 28 176 36 135 127 88 61 91 27 112 81 141 62 189 193 18 41 84 115 142 78 111 37 2 175 100 122 176 137 84 151 135 109 129 132 8 92 125 171 132 67 114 183 146 131 105 163 69 34 200 6 136 101 116 16 19 16 180 6 191 8 162 128 111 78 69 113 54 176 141 8 133 6 133 57 126 50 99 32 7 194 145 175 101 139 49 135 157 109 139 45 5 137 155 24 58 146 92 100 76 175 140 190 173 81 28 43 152 181 94 185 194 165 82 121 104 139 177 49 16 129 154 163 169 99 19 143 77 34 196 167 123 194 115 26 17 58 83 37 190 174 22 134 93 55 150 23 60 34 17 98 162 138 172 60 169 180 161 40 121 196 133 69 112 51 71 46 194 99 175 145 66 123 4 92 133 34 112 156 66 16 138 13 166 104 12 155 157 175 95 84 115 114 1 22 36 199 52 0 120 110 119 46 31 194 3 171 82 142 139 101 145 106 166 99 0 163 82 84 79 39 39 19 159 187 6 63 169 169 161 111 163 64 19 187 181 111 167 45 124 160 94 44 49 137 152 74 34 87 112 27 89 176 185 172 168 166 143 174 100 43 157 125 60 181 64 186 24 162 134 57 163 49 45 149 174 14 52 118 173 54 180 184 9 69 87 68 169 132 165 75 85 185 162 73 62 82 150 48 124 91 161 124 12 165 182 69 128 125 192 39 130 8 170 196 28 131 26 113 137 105 177 167 18 173 12 83 30 95 47 71 36 137 145 3 108 69 41 197 140 179 23 80 60 176 82 95 152 125 192 92 118 67 45 38 93 118 151 104 12 153 109 176 67 45 120 106 163 160 24 191 23 128 146 57 30 150 13 137 177 138 98 54 148 44 74 70 37 95 101 171 151 90 60 52 88 127 69 128 45 172 7 90 1 67 102 21 181 136 90 55 112 163 108 90 162 190 19 188 191 195 22 159 0 156 113 180 195 133 56 198 46 163 151 159 187 85 71 73 127 167 115 143 22 91 110 120 90 160 41 48 143 64 91 81 43 87 194 29 109 181 3 150 106 49 160 57 7 21 133 42 132 51 89 147 133 57 86 96 37 169 27 184 176 24 154 136 75 134 47 124 157 63 175 51 138 153 176 161 43 144 9 51 191 81 131 180 180 156 28 196 184 73 66 132 33 11 81 6 73 117 82 7 137 139 161 58 141 40 194 17 142 95 118 54 193 68 95 83 58 161 16 155 77 97 176 29 8 41 135 150 187 123 107 32 50 196 7 154 131 65 21 77 180 98 79 31 94 179 178 109 87 21 4 63 125 162 31 5 61 193 77 131 23 70 95 141 88 184 3 105 143 36 93 61 50 11 90 95 190 147 170 85 123 34 130 190 113 67 45 122 141 147 70 144 90 48 6 43 191 48 109 85 194 152 67 39 136 181 101 92 170 43 185 41 136 70 96 163 126 55 109 64 54 73 185 165 164 83 86 103 135 105 197 193 141 84 17 7 127 45 36 65 114 97 142 191 181 111 92 113 134 119 65 88 8 114 128 71 28 59 95 24 190 55 82 42 122 182 53 127 19 45 81 46 149 88 24 132 176 74 79 92 57 64 48 112 57 134 192 179 180 103 163 59 26 140 24 129 140 128 76 179 180 158 2 24 142 188 45 118 31 128 179 11 2 55 18 194 42 79 78 21 180 174 162 37 144 125 168 40 36 17 158 186 141 179 82 69 20 16 61 167 111 14 3 200 184 155 153 66 153 142 153 95 181 175 181 190 146 167 196 57 148 142 161 114 106 147 60 178 20 16 112 140 177 181 180 164 161 90 82 141 179 170 77 40 166 141 69 141 149 180 63 39 58 143 19 40 63 9 149 118 124 30 195 2 104 194 103 132 114 128 107 13 153 15 174 137 84 150 194 15 10 56 17 5 99 6 137 28 24 40 165 172 177 38 90 106 177 74 103 14 94 154 175 141 4 168 0 44 132 117 160 80 139 172 164 160 165 168 137 132 170 48 142 73 61 31 148 156 181 99 136 73 130 35 140 137 112 191 122 103 97 116 27 53 83 183 62 86 160 94 135 83 200 48 149 171 6 153 96 108 78 199 29 140 64 77 144 33 183 93 161 96 182 28 78 162 147 51 170 14 173 30 97 45 128 69 110 105 130 71 49 25 23 46 146 20 68 5 99 43 189 159 170 145 186 191 162 111 149 149 162 70 76 79 149 75 110 196 18 157 154 200 79 17 154 39 67 26 67 193 155 169 182 48 88 146 71 175 164 96 65 151 50 145 194 170 67 9 94 112 9 82 107 86 6 178 109 81 151 84 36 63 161 136 113 100 73 138 186 165 150 32 140 49 111 64 34 90 191 89 28 140 148 46 2 112 107 96 56 85 13 112 163 10 101 113 80 96 110 78 52 200 2 6 66 140 182 124 52 3 114 149 141 17 127 84 139 60 132 86 127 124 78 188 105 82 94 144 119 94 111 164 88 108 59 168 47 52 182 164 58 171 43 129 146 14 16 26 5 178 149 193 117 115 183 144 163 75 156 64 10 8 15 44 21 93 188 5 162 190 7 160 1 56 128 43 30 55 100 185 113 122 66 172 55 28 165 21 122 145 37 77 25 1 52 141 13 0 159 112 175 120 102 106 135 69 83 199 196 30 58 62 148 156 108 180 29 154 126 28 54 2 159 76 1 105 66 68 191 161 97 99 143 6 150 48 55 153 101 89 165 123 80 31 79 161 60 118 38 77 41 127 70 62 189 90 51 165 132 53 191 28 145 10 105 172 125 1 33 158 23 127 163 173 1 77 3 73 114 167 186 67 148 14 183 75 199 2 17 163 132 158 49 48 153 89 109 165 82 172 66 188 18 65 155 84 13 132 104 29 56 2 88 157 91 87 126 65 185 2 196 177 96 126 179 14 8 143 135 31 46 31 159 193 115 179 162 36 166 108 50 37 116 151 90 152 9 177 133 42 12 175 134 166 20 143 152 96 37 36 21 101 69 184 104 65 160 60 4 30 170 127 83 134 26 69 99 13 190 35 62 84 156 129 139 186 43 70 137 126 183 197 162 49 199 136 99 43 146 97 117 131 6 70 183 122 48 22 150 100 168 169 91 180 110 128 26 159 120 145 106 160 167 168 171 98 34 170 139 60 198 9 112 62 141 178 174 75 73 179 127 38 41 144 61 84 196 62 128 63 133 67 58 24 28 14 63 186 183 108 78 42 88 172 174 78 143 127 152 62 177 58 9 112 136 33 58 94 70 3 121 138 19 96 93 55 89 100 128 190 130 38 13 114 100 9 196 157 46 153 144 33 178 155 39 157 105 127 140 104 184 53 192 158 80 152 81 6 119 170 143 121 21 52 57 74 44 69 63 181 195 178 3 178 18 111 92 37 37 134 171 115 89 94 0 87 9 40 111 163 42 43 126 64 60 56 185 101 67 32 12 77 16 160 108 100 130 21 15 190 92 37 17 50 45 84 174 55 153 120 31 49 176 27 45 71 130 31 165 116 176 66 66 3 10 97 184 184 131 5 87 65 12 184 157 197 45 24 135 130 28 177 5 37 43 146 161 12 24 140 129 19 78 48 74 152 127 46 95 21 116 35 100 161 92 114 36 61 18 94 30 168 77 39 19 6 10 8 55 28 116 34 68 115 181 122 12 190 179 99 81 28 135 187 166 31 192 0 62 108 6 33 185 125 172 179 83 122 55 0 196 78 129 152 60 42 198 58 159 93 71 184 144 9 164 104 134 123 104 35 103 141 158 51 173 1 68 14 13 8 37 105 158 108 175 180 156 193 105 26 74 101 150 192 175 80 172 29 153 189 185 134 99 56 172 189 195 123 65 156 45 23 71 66 52 111 74 140 194 12 55 104 159 106 136 71 169 176 85 94 185 51 63 158 19 194 66 47 123 169 34 163 175 65 114 68 179 65 74 194 111 194 24 115 190 100 118 116 160 33 134 125 25 182 49 26 11 13 104 145 100 172 158 66 36 98 1 153 126 11 30 99 22 117 105 17 39 38 48 71 184 105 5 93 175 173 159 45 139 11 54 111 196 53 189 192 68 5 95 68 31 119 4 62 44 158 142 98 69 159 112 6 34 137 161 3 168 89 162 199 187 46 153 33 107 41 105 112 188 156 83 171 118 155 18 143 58 199 61 189 70 148 83 61 168 59 140 191 187 78 34 173 86 57 52 189 28 135 157 191 56 169 160 56 102 162 59 144 133 98 156 190 200 95 177 134 172 117 18 44 87 177 132 107 44 172 140 58 21 30 85 100 9 76 159 163 146 74 25 170 108 57 129 98 6 146 115 114 32 183 65 24 16 176 134 5 148 196 191 19 47 126 10 149 110 4 163 196 105 112 59 178 197 152 75 66 156 107 152 194 14 36 195 130 123 164 200 79 120 176 172 5 5 163 13 111 27 20 37 3 157 150 150 115 44 148 63 59 174 130 184 44 151 6 88 41 98 110 121 81 165 176 125 118 52 195 140 172 123 117 133 153 122 195 3 125 38 87 38 77 68 22 110 133 127 8 168 69 49 48 175 164 151 40 62 10 113 49 88 200 197 70 146 5 162 167 139 92 62 13 130 154 66 167 96 34 28 198 131 8 95 11 99 197 164 143 153 87 30 193 161 21 141 3 108 96 129 122 186 168 45 98 8 105 96 119 200 48 7 45 191 175 57 112 1 23 8 81 56 138 133 135 115 135 179 184 86 72 159 180 16 141 171 128 184 164 109 49 70 124 93 51 52 103 141 200 142 8 178 24 59 144 85 107 76 141 171 114 194 79 154 185 24 50 187 33 63 138 165 200 65 195 140 139 177 15 84 84 46 104 104 169 82 123 17 104 12 68 79 120 153 78 1 27 200 115 2 84 159 62 194 111 5 9 132 179 7 71 122 198 82 0 42 181 103 194 123 47 88 75 191 169 162 142 129 96 117 43 148 21 129 4 158 28 98 159 71 154 62 155 59 98 78 193 4 104 189 196 29 163 179 197 138 170 80 94 94 64 188 17 13 119 79 11 106 177 150 71 91 194 181 84 192 68 158 34 88 50 79 75 156 168 34 25 85 23 110 90 154 7 53 193 146 151 30 119 152 124 88 71 133 62 188 88 128 159 8 161 17 77 48 90 151 143 131 51 174 186 98 194 36 21 22 39 54 178 175 161 141 94 87 51 75 119 157 35 7 126 25 72 160 162 121 104 85 183 54 34 146 151 9 145 150 3 164 165 87 116 11 1 39 151 117 56 28 57 97 92 63 42 181 52 180 93 20 31 45 94 154 26 119 70 173 24 108 98 49 10 125 48 93 86 13 185 123 39 160 146 56 130 113 197 1 112 47 8 20 152 111 80 87 80 166 13 20 87 32 27 78 2 195 191 32 142 22 183 188 55 183 187 17 8 40 116 29 42 69 100 127 144 146 46 95 57 125 0 26 43 198 181 77 166 174 24 79 143 90 116 126 144 103 160 106 133 185 192 153 82 198 174 0 42 158 129 106 5 148 181 180 160 162 173 175 76 75 1 123 127 164 179 67 115 50 60 116 106 152 2 46 101 117 68 112 167 99 155 28 96 83 105 72 46 181 185 163 94 102 113 127 162 138 166 10 179 189 162 123 11 29 22 138 152 182 45 137 18 13 65 88 162 25 111 177 83 57 72 174 83 39 151 28 26 58 158 1 33 45 167 65 98 85 162 154 105 102 129 157 160 2 10 161 42 141 108 154 37 8 162 80 78 84 13 114 17 69 94 132 149 2 133 73 172 23 179 72 123 96 100 161 66 79 178 103 177 15 0 131 114 190 103 176 22 70 5 121 154 39 153 138 181 143 150 62 80 40 135 114 196 78 190 43 25 47 150 20 179 7 117 125 156 167 49 86 164 144 58 21 11 8 193 6 107 177 146 112 0 90 140 117 29 134 110 53 124 134 142 106 137 35 88 125 75 0 51 68 35 109 114 22 141 17 128 12 11 0 189 165 165 138 96 198 146 70 12 48 169 111 92 51 152 60 88 185 15 127 198 74 111 97 181 1 12 147 145 146 177 136 3 190 169 66 98 183 162 112 132 51 95 197 4 85 88 15 124 129 4 162 103 143 98 127 153 96 17 6 101 11 195 130 43 54 87 144 66 126 0 90 133 62 33 77 114 98 68 64 41 178 191 43 112 29 186 85 176 34 145 73 23 6 167 20 21 136 45 152 46 163 194 57 103 53 76 53 193 130 83 185 123 185 127 45 10 173 171 188 96 3 70 75 78 69 14 48 14 181 23 117 28 133 169 119 31 75 149 34 51 22 158 26 104 123 141 74 199 42 76 7 146 139 5 33 73 190 45 173 47 191 93 35 102 99 120 9 5 168 50 82 4 166 191 146 189 156 15 3 165 30 183 64 197 76 99 172 31 24 51 84 176 25 113 17 52 51 126 105 105 90 124 127 106 88 2 104 99 162 178 99 35 23 71 43 18 154 145 64 198 11 149 139 23 187 130 117 169 28 167 44 62 61 139 155 115 191 78 61 62 193 83 6 145 56 102 7 52 134 95 49 180 67 140 116 43 146 84 20 50 3 35 45 164 171 112 110 1 173 166 153 108 195 29 116 63 18 3 93 154 90 19 107 88 109 47 123 188 37 125 39 87 6 116 93 25 180 182 93 83 197 67 52 45 13 151 66 8 99 34 168 173 47 6 104 161 44 122 101 116 156 52 192 162 8 63 40 17 148 66 129 100 123 22 78 114 80 89 120 8 89 162 45 10 56 60 55 164 197 93 169 183 193 46 8 8 120 156 113 49 8 56 17 17 103 185 99 106 9 3 77 163 115 126 182 35 30 179 6 21 175 122 164 121 81 146 57 160 142 72 159 58 76 66 107 103 135 57 28 193 46 175 24 180 198 100 25 34 25 140 176 73 192 16 124 182 39 59 76 142 37 162 105 190 191 57 107 152 183 37 46 19 131 146 166 96 168 104 125 34 159 187 184 6 193 5 119 194 46 127 171 62 66 121 57 188 169 30 83 119 94 169 1 104 166 33 144 32 41 86 154 147 122 183 6 127 185 125 168 179 106 127 84 59 23 111 49 29 18 65 82 40 178 30 91 15 11 47 93 46 18 4 144 98 142 174 138 7 132 152 106 28 172 187 28 172 134 26 43 94 153 62 196 195 107 33 97 163 46 26 162 41 15 113 96 12 92 184 22 44 163 38 150 7 178 173 7 92 187 96 137 160 136 97 140 53 138 125 33 72 186 120 26 194 108 13 22 165 198 60 200 57 45 32 89 197 0 78 117 62 55 159 188 73 91 23 114 126 75 89 0 30 138 83 119 24 36 4 155 129 71 33 101 199 149 108 183 167 186 33 137 104 162 112 25 116 148 58 15 36 146 31 171 151 196 97 19 178 127 13 58 39 78 33 145 66 29 11 143 109 23 48 136 165 125 17 33 55 132 75 155 39 137 85 59 87 186 146 144 104 199 56 76 189 36 81 62 83 39 136 45 180 24 116 110 20 168 187 12 92 72 145 86 175 62 176 78 126 99 61 187 23 51 113 65 161 149 90 141 183 68 177 175 60 86 82 157 53 146 162 154 93 56 130 123 60 12 177 110 50 18 156 2 65 165 20 188 143 52 122 167 160 94 15 155 104 120 116 153 199 92 54 177 155 29 31 6 59 71 179 59 80 1 87 16 47 140 84 192 89 9 32 193 51 107 126 16 41 68 111 9 89 154 93 92 62 69 78 1 192 185 123 159 65 99 88 196 67 125 102 70 28 126 86 100 134 53 92 172 32 56 183 177 184 43 179 63 74 122 173 95 135 186 7 98 163 165 2 125 69 186 142 102 171 142 84 130 117 58 195 12 33 162 142 195 90 162 179 90 177 6 160 175 169 162 30 198 164 147 148 138 35 70 63 43 143 115 166 68 132 125 21 32 169 140 194 158 152 123 62 173 89 20 139 54 185 102 101 170 155 103 67 111 27 198 116 119 181 124 200 47 34 155 118 119 187 182 106 84 186 82 168 52 9 27 101 83 186 68 17 32 143 148 137 179 128 200 113 163 176 161 194 47 185 45 54 116 119 1 37 47 114 197 76 63 69 97 141 87 73 171 109 5 76 198 62 99 25 79 140 152 20 132 139 66 173 32 112 34 141 72 130 73 72 16 19 171 136 50 64 105 31 74 129 19 183 160 65 111 137 32 133 168 67 86 13 89 139 22 101 33 184 91 55 129 140 182 162 16 23 96 131 145 166 146 41 68 80 90 200 43 99 40 200 66 95 34 9 126 91 55 108 143 157 195 158 145 104 3 105 150 48 115 127 87 123 149 67 119 4 31 136 77 48 181 193 150 112 153 170 89 17 114 42 87 0 49 80 54 105 108 84 22 29 42 139 4 154 85 151 66 134 130 102 133 139 158 153 123 117 189 195 127 28 49 91 128 40 123 79 68 91 154 148 58 63 78 35 176 32 59 10 180 87 34 28 28 43 150 103 154 81 62 85 120 200 2 147 132 174 116 163 138 196 152 134 167 102 131 195 80 175 181 84 43 185 16 72 61 159 192 136 178 64 22 37 5 57 157 73 196 14 126 127 33 183 124 7 105 189 47 94 43 26 50 99 154 37 132 116 139 125 141 175 105 17 60 150 175 88 113 104 46 109 0 42 182 7 168 156 84 171 155 106 140 68 58 101 36 42 90 79 85 189 15 165 98 27 90 165 31 24 58 165 65 5 136 52 115 104 142 114 34 116 82 102 61 108 34 47 170 170 141 62 32 98 31 133 1 170 165 142 144 136 9 106 49 169 94 170 141 136 157 79 101 153 182 94 113 70 83 57 8 12 23 103 81 38 164 190 200 182 30 153 169 13 43 5 91 175 8 195 193 199 43 87 0 34 185 193 31 74 150 145 92 84 200 167 145 119 175 92 26 133 17 31 77 170 127 11 198 155 15 30 9 169 22 55 47 38 165 90 2 12 28 121 146 69 145 80 130 195 23 185 109 130 6 155 44 139 179 119 47 173 15 138 182 88 46 98 26 157 52 78 80 187 38 168 41 12 161 125 176 55 176 156 59 151 25 58 34 122 48 86 84 38 145 135 83 61 48 17 143 46 82 64 28 168 57 18 98 67 194 56 28 85 133 26 154 58 58 6 190 53 25 110 8 7 108 59 145 39 126 64 42 104 112 124 152 113 103 19 131 37 159 61 116 53 101 4 66 144 49 15 75 193 177 47 179 44 145 162 165 15 21 146 79 12 64 86 107 56 74 108 8 177 148 50 50 15 189 145 150 162 94 11 190 156 138 89 18 138 119 49 47 123 117 75 66 149 189 131 119 148 121 194 3 170 104 10 123 174 130 194 25 164 82 130 147 81 52 140 37 195 49 105 7 104 53 2 90 84 110 176 122 67 1 100 123 72 174 22 36 152 178 170 187 89 98 168 3 59 0 77 29 14 156 138 172 17 24 115 148 66 54 58 157 55 59 61 36 25 181 92 36 189 26 135 27 155 0 149 13 181 198 65 27 143 65 26 192 153 51 46 157 22 127 108 29 60 42 112 182 25 47 35 85 35 2 189 59 155 57 81 171 169 184 98 46 14 63 156 52 140 193 57 171 108 90 152 66 58 93 162 191 51 5 7 10 155 185 134 139 143 21 81 137 109 71 183 143 138 146 132 139 90 197 24 67 59 14 100 184 195 144 74 38 127 170 48 181 47 81 66 82 123 16 137 44 84 111 2 121 131 21 66 11 49 95 122 82 192 181 187 93 30 98 176 179 55 125 114 96 119 187 1 129 74 79 176 196 185 192 50 86 41 16 90 27 190 113 113 37 72 3 75 11 78 70 109 146 66 109 62 26 183 42 47 185 125 164 108 48 121 184 103 64 107 183 4 25 142 76 127 110 114 73 93 45 20 96 66 183 8 170 103 108 155 170 122 173 75 46 87 76 68 179 155 32 145 75 121 162 78 29 17 122 64 148 150 38 191 13 129 130 95 174 2 65 175 196 135 88 26 140 97 72 39 14 123 178 193 8 195 88 19 59 167 33 90 155 42 164 200 192 144 187 67 22 200 52 194 17 25 0 113 66 8 143 68 49 183 89 63 183 195 118 189 43 128 17 135 16 153 99 183 95 121 42 154 182 55 127 150 160 142 2 54 82 188 45 137 167 10 121 133 198 56 0 9 88 149 128 68 89 64 22 19 60 175 108 60 47 6 146 48 178 192 121 79 156 67 93 146 30 165 156 33 192 72 151 163 80 148 167 174 94 185 174 5 85 170 127 81 92 100 188 76 95 199 31 120 72 20 145 20 104 177 108 85 90 172 27 28 67 152 184 19 200 145 153 184 89 144 74 140 40 8 107 134 74 142 96 73 120 55 26 34 136 121 158 47 179 99 67 168 42 53 17 193 58 31 106 45 61 41 33 136 75 175 18 157 47 185 85 108 64 101 149 188 29 45 72 149 0 49 58 10 147 111 160 141 17 99 194 148 12 129 88 77 169 24 163 12 162 79 138 92 61 10 188 53 105 21 99 20 170 25 112 85 120 188 188 2 184 159 25 59 117 136 167 0 75 105 74 179 134 185 76 127 29 59 160 144 20 4 73 76 64 180 40 170 127 17 123 169 5 98 75 67 102 37 61 57 154 167 4 158 159 7 19 37 200 27 96 196 144 79 155 71 57 80 85 190 102 129 160 59 100 120 38 196 193 29 141 175 131 50 88 86 91 153 172 170 185 12 110 81 130 70 64 114 62 43 158 60 91 153 159 141 126 125 140 105 133 50 117 104 38 190 2 26 171 93 65 40 27 138 102 139 179 116 1 77 134 31 159 176 141 49 121 96 0 133 2 76 164 52 11 110 81 158 184 195 66 81 7 65 124 180 91 148 22 102 107 67 188 37 167 130 89 187 81 132 172 125 3 47 36 40 158 9 184 8 5 112 67 98 116 73 59 39 147 99 188 80 98 15 75 94 145 90 91 181 65 185 60 60 34 58 18 83 145 20 152 31 138 116 138 64 181 120 33 18 110 24 106 108 162 127 72 121 153 41 75 30 5 8 105 63 100 167 194 97 179 1 63 58 184 168 12 31 147 200 92 99 198 1 101 167 29 25 93 81 78 24 178 122 81 69 107 200 186 27 52 11 143 191 33 108 56 126 79 144 39 193 88 85 180 94 128 157 9 63 21 108 183 181 80 169 119 131 168 197 57 66 61 38 75 195 71 11 90 72 94 44 132 32 159 134 89 123 8 21 4 61 191 68 155 182 59 23 134 66 121 67 47 47 173 76 6 144 44 195 23 148 96 95 2 37 21 40 102 62 54 37 195 115 62 31 156 129 94 48 83 183 43 16 144 89 100 36 116 35 27 172 171 150 153 51 53 161 7 179 155 89 188 178 130 70 44 174 0 61 57 14 31 38 127 172 56 40 194 199 190 91 115 62 13 39 188 0 79 168 94 117 161 113 174 88 23 110 158 107 170 67 160 64 109 12 132 92 152 114 137 24 48 76 82 139 193 52 3 105 88 111 199 117 139 9 87 169 159 16 127 43 106 200 134 135 111 96 61 118 40 94 16 54 131 69 92 20 68 29 61 74 169 152 10 145 141 8 81 51 91 92 2 76 179 15 126 46 74 96 67 118 195 198 125 7 171 62 104 70 24 81 66 158 120 151 154 167 174 100 76 28 142 147 200 168 37 186 117 17 95 92 64 5 28 162 120 192 5 0 65 130 172 137 173 7 195 68 123 157 78 63 118 22 187 110 193 33 156 199 30 166 170 3 54 32 73 7 0 58 78 192 56 25 30 66 102 126 163 65 115 158 163 140 86 14 54 198 133 168 151 189 42 85 69 119 72 32 82 140 193 5 25 140 123 54 111 84 60 131 120 67 175 109 198 142 107 17 9 33 63 164 55 176 181 44 26 29 158 169 14 115 161 175 87 111 154 144 81 180 51 61 40 155 199 192 83 28 46 94 137 23 31 27 3 124 60 56 100 137 37 120 173 104 36 12 89 65 122 99 155 42 101 176 114 171 146 62 190 185 127 158 29 182 177 167 67 181 10 30 55 26 125 171 94 158 6 134 16 158 70 189 94 98 10 103 3 1 157 191 43 46 13 147 123 76 141 131 25 164 188 28 160 137 94 153 168 197 68 15 74 120 109 189 191 41 144 191 183 76 60 130 70 57 158 26 9 35 29 19 120 97 98 154 18 55 154 22 61 140 122 124 157 25 107 142 145 111 137 24 72 33 130 179 98 155 117 186 129 37 171 70 114 112 182 139 23 172 54 32 182 106 131 110 15 82 166 175 108 173 194 163 20 58 177 154 50 49 122 157 155 156 93 121 68 101 19 100 198 0 14 118 73 155 104 104 110 59 55 21 33 115 92 16 39 169 173 184 9 95 69 127 81 0 79 35 145 184 29 65 1 0 160 127 39 61 187 150 78 189 28 105 40 75 38 71 82 4 109 81 106 62 142 16 187 42 196 101 18 61 92 157 144 145 42 50 135 70 197 20 97 132 10 190 164 55 107 40 35 43 97 28 185 7 27 36 3 133 24 35 35 28 102 113 106 79 108 62 107 5 181 7 157 180 15 60 48 117 150 83 118 134 15 171 125 81 193 63 56 93 35 43 21 195 30 22 153 174 159 101 47 179 173 110 62 156 140 46 130 37 36 137 4 184 179 87 199 9 10 56 113 58 110 195 104 37 70 109 69 96 136 16 140 99 193 129 137 120 116 164 148 2 101 51 92 139 84 48 185 75 9 37 49 58 130 132 170 159 29 14 62 76 109 93 175 61 0 26 51 117 195 40 128 16 143 146 45 31 118 148 11 58 42 91 156 55 200 144 160 52 36 164 141 77 90 163 6 69 156 89 66 26 192 43 36 103 33 38 117 99 136 121 84 47 114 184 45 51 33 3 196 146 90 179 136 110 174 147 194 149 90 13 190 75 53 138 168 168 71 142 181 115 154 108 26 50 173 176 11 161 3 92 23 84 179 17 56 92 75 148 38 149 127 168 38 120 192 106 117 41 155 137 118 73 79 123 69 3 193 170 46 31 116 172 164 120 56 153 197 32 167 163 129 97 107 39 156 3 188 188 1 111 63 151 162 158 152 200 31 88 42 3 197 182 121 129 106 53 10 134 91 57 84 132 115 93 64 68 100 187 78 50 172 50 187 136 108 184 114 35 19 157 81 118 157 158 184 192 74 64 139 1 11 23 95 116 29 95 78 192 162 178 46 89 165 0 14 30 156 6 156 55 134 32 112 87 129 28 95 157 100 142 62 19 15 9 109 162 92 94 11 14 97 5 139 196 181 131 81 186 184 98 108 32 74 187 58 135 62 118 100 182 86 191 79 23 37 23 123 76 34 163 93 27 187 51 122 131 109 166 21 123 190 15 85 110 156 121 162 169 30 45 86 163 36 109 125 21 120 75 10 170 141 122 97 49 177 108 137 191 37 143 58 122 40 40 18 59 189 45 110 97 41 157 21 36 40 91 60 159 7 180 55 78 139 67 49 82 137 50 14 85 5 89 71 46 82 162 26 186 194 17 41 38 79 42 98 136 123 7 104 59 111 15 179 148 53 94 193 100 126 1 38 120 89 24 71 116 160 146 158 169 158 27 99 121 153 5 83 142 84 189 192 120 28 142 91 149 113 200 104 186 1 104 199 125 74 65 168 176 153 54 68 112 11 172 35 133 174 144 12 102 196 41 5 90 41 153 109 98 108 113 40 7 185 169 72 154 180 36 61 80 177 107 198 156 43 35 141 33 69 190 94 70 197 172 119 150 125 187 133 52 110 96 32 159 58 8 157 195 169 43 126 179 69 93 123 160 125 35 190 119 169 164 0 100 79 162 31 168 127 46 184 3 4 192 18 65 112 131 28 19 137 155 143 7 184 136 56 100 174 168 28 58 132 143 98 28 183 185 186 167 100 57 124 20 27 136 25 37 27 132 118 21 16 109 58 35 50 13 140 186 105 148 110 161 174 190 100 140 92 135 68 90 107 118 160 80 13 36 161 59 24 6 97 24 34 142 151 70 184 45 63 114 198 73 77 147 36 112 194 139 93 99 153 195 189 82 199 192 22 28 121 193 148 6 153 78 17 191 85 55 14 148 133 132 63 106 147 110 175 30 197 119 130 188 68 13 140 9 106 166 171 70 32 61 107 41 9 139 191 42 183 88 133 121 190 155 91 165 86 7 135 47 156 180 199 89 191 127 141 90 135 183 104 75 32 195 186 167 157 40 44 38 111 120 88 178 149 81 149 19 104 136 200 65 129 134 166 67 1 88 36 88 51 38 1 114 130 127 139 18 110 113 97 184 13 190 116 98 40 191 102 33 80 53 53 96 104 15 165 10 184 162 124 113 179 163 174 5 97 55 106 26 129 164 102 42 148 72 135 46 113 198 8 5 59 109 88 118 19 8 15 41 191 39 144 10 119 157 106 123 68 59 191 107 63 112 80 109 38 118 37 53 197 102 99 192 56 116 197 101 80 120 112 13 155 75 143 73 24 118 86 94 174 188 194 150 35 33 62 190 157 171 169 53 80 189 45 126 109 25 5 116 17 102 144 109 24 8 143 189 182 185 32 146 125 183 29 137 46 167 179 185 107 55 49 5 65 77 55 47 184 161 19 114 185 41 14 85 152 117 142 164 156 32 10 127 117 162 112 138 52 70 112 106 180 38 99 101 121 124 70 197 89 193 192 133 71 19 135 123 34 135 137 5 52 81 74 8 49 97 36 151 5 131 12 13 22 158 89 33 118 4 140 64 118 190 96 30 198 21 1 140 43 12 170 109 78 34 52 180 93 117 148 10 75 197 142 28 140 85 166 123 47 107 147 72 3 28 177 75 40 83 181 50 11 145 20 176 148 108 150 140 105 69 91 153 171 130 175 46 165 43 116 143 28 5 177 154 77 62 164 106 147 161 114 3 154 128 135 181 26 13 7 161 113 122 164 87 176 143 193 198 21 184 75 74 182 169 76 93 199 191 49 198 68 22 113 45 68 76 169 54 150 68 1 7 191 58 70 161 150 128 9 81 129 78 89 162 147 188 162 47 33 106 64 146 124 21 184 19 142 70 52 26 56 97 155 51 134 69 143 188 160 77 198 65 194 170 21 39 109 40 83 120 9 104 54 94 10 72 81 69 3 184 187 27 138 71 122 106 21 131 74 168 148 74 64 73 143 160 186 57 51 77 72 127 37 78 158 171 44 184 28 59 109 89 195 180 119 104 52 105 190 53 170 159 68 117 96 85 194 175 195 21 112 179 112 121 16 24 157 6 116 34 128 4 15 150 128 56 35 146 192 160 1 151 131 5 19 117 158 152 172 198 123 19 40 8 128 88 72 65 188 172 68 169 143 175 134 141 52 149 83 145 167 161 56 128 160 1 169 154 19 74 152 164 32 9 91 112 101 73 36 160 140 130 168 155 195 53 82 66 41 63 73 124 103 90 7 119 177 70 97 97 200 120 187 124 0 170 102 34 20 142 123 54 174 123 120 3 22 99 29 149 79 188 200 120 31 34 140 18 24 193 163 130 185 198 62 162 105 105 147 70 37 92 66 10 43 51 147 17 133 59 193 142 75 54 131 30 173 156 98 199 48 45 128 86 169 188 147 75 40 150 27 75 162 61 41 182 163 137 172 123 148 187 145 94 182 138 164 6 176 40 152 14 60 66 75 145 181 63 156 193 160 116 76 172 43 39 97 142 32 149 99 139 35 87 73 92 171 65 199 163 32 47 183 14 163 195 28 116 84 46 198 110 60 133 93 49 183 134 61 45 135 54 79 136 152 4 14 146 119 45 35 30 0 152 124 193 69 91 172 124 117 115 45 179 182 104 13 193 96 79 159 37 69 197 137 36 120 106 177 182 104 175 76 188 53 16 15 25 62 84 102 132 180 109 18 182 31 17 113 32 67 156 74 152 106 46 163 174 20 65 73 120 9 85 77 169 12 174 191 49 46 110 71 193 11 36 47 147 89 99 158 75 94 160 100 167 91 181 91 180 109 158 170 2 18 34 45 53 175 178 33 74 27 164 115 67 106 94 70 124 14 48 101 73 75 25 106 31 79 125 161 200 10 133 71 110 176 10 3 51 170 166 103 151 128 132 174 76 123 7 108 47 24 34 156 87 154 125 119 154 106 64 103 23 23 157 117 20 156 154 59 137 83 5 80 42 157 103 78 169 5 22 90 146 22 129 118 196 15 43 169 149 104 20 48 136 118 80 80 83 150 173 46 187 51 134 145 106 191 148 8 138 124 175 42 151 190 159 144 21 195 53 32 181 178 35 5 22 110 180 195 91 118 165 41 26 66 195 142 89 190 66 45 12 178 158 123 46 37 112 37 59 153 42 40 39 43 110 125 27 13 112 85 172 191 58 55 62 82 70 98 17 33 179 156 94 165 160 85 89 189 169 69 93 76 74 155 164 56 75 150 195 63 156 162 23 0 97 9 75 142 69 126 110 87 35 65 77 195 141 92 73 179 29 31 126 127 170 100 45 100 131 29 152 166 125 163 56 49 26 5 193 81 90 196 49 181 93 152 34 25 78 15 145 185 180 8 108 66 193 58 158 42 71 49 196 143 155 101 135 38 181 30 36 84 44 192 128 148 26 149 94 154 32 173 90 194 146 91 176 3 74 99 12 155 112 167 108 194 1 120 196 181 107 104 90 113 10 184 46 127 163 111 0 159 34 97 120 134 31 172 8 161 61 146 73 169 157 26 16 199 29 71 132 114 24 67 186 16 154 123 39 65 138 108 63 65 39 107 116 179 190 97 171 37 100 123 32 164 86 181 78 192 165 6 57 84 62 34 150 176 72 166 33 46 74 159 144 107 168 200 185 51 94 82 113 98 199 125 105 128 133 92 93 166 167 73 175 188 200 110 189 187 133 71 198 9 67 62 3 166 155 107 120 89 94 89 122 147 164 5 148 46 7 10 137 12 153 88 57 113 146 40 54 168 10 195 157 140 66 140 183 14 177 136 167 82 10 13 94 37 115 137 55 89 47 53 104 199 130 168 50 161 186 91 58 96 89 196 142 8 55 35 185 79 166 15 33 22 198 164 171 150 72 50 128 90 0 73 167 119 118 26 178 67 178 22 165 149 40 141 85 6 139 123 119 66 112 92 71 3 75 28 8 172 63 28 12 171 26 149 54 66 18 31 104 97 125 159 163 69 8 141 134 173 145 195 102 142 137 29 93 162 26 160 28 41 107 91 55 3 43 147 32 197 181 21 109 50 137 50 166 128 95 124 167 117 73 26 49 11 98 26 137 0 159 166 85 69 150 83 133 155 104 189 129 176 125 95 51 78 165 23 47 180 197 69 1 138 64 101 184 14 150 45 89 23 79 4 74 118 66 170 148 162 79 31 140 38 178 113 91 107 128 51 167 143 135 187 101 126 59 